<?xml version="1.0" encoding="UTF-8"?>
<mxfile host="app.diagrams.net" agent="Mozilla/5.0 (Windows NT 10.0; Win64; x64) AppleWebKit/537.36 (KHTML, like Gecko) Chrome/134.0.0.0 Safari/537.36 OPR/119.0.0.0" version="27.1.6">
  <diagram name="Page-1" id="zeIEuIPANcBFU8SuHKh6">
    <mxGraphModel dx="1473" dy="882" grid="1" gridSize="10" guides="1" tooltips="1" connect="1" arrows="1" fold="1" page="1" pageScale="1" pageWidth="850" pageHeight="1100" math="0" shadow="0">
      <root>
        <mxCell id="0" />
        <mxCell id="1" parent="0" />
        <mxCell id="MTI34OcGUTJvr-FiTrSd-1" value="Zombie" style="swimlane;fontStyle=1;align=center;verticalAlign=top;childLayout=stackLayout;horizontal=1;startSize=26;horizontalStack=0;resizeParent=1;resizeParentMax=0;resizeLast=0;collapsible=1;marginBottom=0;whiteSpace=wrap;html=1;" vertex="1" parent="1">
          <mxGeometry x="610" y="370" width="210" height="420" as="geometry" />
        </mxCell>
        <mxCell id="MTI34OcGUTJvr-FiTrSd-2" value="&lt;div&gt;- speed : int&lt;/div&gt;&lt;div&gt;- damage : int&amp;nbsp;&lt;/div&gt;&lt;div&gt;- health: int&lt;/div&gt;&lt;div&gt;&lt;div&gt;- x : int&lt;/div&gt;&lt;div&gt;- y : int&lt;/div&gt;&lt;/div&gt;&lt;div&gt;- lastMoveTime : int&lt;/div&gt;&lt;div&gt;- attacking : boolean&lt;/div&gt;" style="text;strokeColor=none;fillColor=none;align=left;verticalAlign=top;spacingLeft=4;spacingRight=4;overflow=hidden;rotatable=0;points=[[0,0.5],[1,0.5]];portConstraint=eastwest;whiteSpace=wrap;html=1;" vertex="1" parent="MTI34OcGUTJvr-FiTrSd-1">
          <mxGeometry y="26" width="210" height="114" as="geometry" />
        </mxCell>
        <mxCell id="MTI34OcGUTJvr-FiTrSd-3" value="" style="line;strokeWidth=1;fillColor=none;align=left;verticalAlign=middle;spacingTop=-1;spacingLeft=3;spacingRight=3;rotatable=0;labelPosition=right;points=[];portConstraint=eastwest;strokeColor=inherit;" vertex="1" parent="MTI34OcGUTJvr-FiTrSd-1">
          <mxGeometry y="140" width="210" height="8" as="geometry" />
        </mxCell>
        <mxCell id="MTI34OcGUTJvr-FiTrSd-4" value="+ Zombie(x : int, y : int)&lt;div&gt;+ canMove(currentTime : int) : void&lt;br&gt;&lt;div&gt;+ walk(currentTime : int) : void&lt;/div&gt;&lt;div&gt;+ loseHP(dmg : int) : void&lt;/div&gt;&lt;div&gt;+ isDead() : boolean&lt;/div&gt;&lt;div&gt;+ attack() : void&lt;/div&gt;&lt;div&gt;+ stopAttack() : void&lt;/div&gt;&lt;div&gt;+ isAttacking() : boolean&lt;/div&gt;&lt;div&gt;+ getHealth() : int&lt;/div&gt;&lt;div&gt;+ getSpeed() : int&lt;/div&gt;&lt;div&gt;&lt;div&gt;+ getDamage() : int&lt;/div&gt;&lt;/div&gt;&lt;div&gt;+ getX() : int&lt;/div&gt;&lt;div&gt;+ getY() : int&lt;/div&gt;&lt;/div&gt;&lt;div&gt;+ getLastMoveTime() : int&lt;/div&gt;" style="text;strokeColor=none;fillColor=none;align=left;verticalAlign=top;spacingLeft=4;spacingRight=4;overflow=hidden;rotatable=0;points=[[0,0.5],[1,0.5]];portConstraint=eastwest;whiteSpace=wrap;html=1;" vertex="1" parent="MTI34OcGUTJvr-FiTrSd-1">
          <mxGeometry y="148" width="210" height="272" as="geometry" />
        </mxCell>
        <mxCell id="MTI34OcGUTJvr-FiTrSd-5" value="Peashooter" style="swimlane;fontStyle=1;align=center;verticalAlign=top;childLayout=stackLayout;horizontal=1;startSize=26;horizontalStack=0;resizeParent=1;resizeParentMax=0;resizeLast=0;collapsible=1;marginBottom=0;whiteSpace=wrap;html=1;" vertex="1" parent="1">
          <mxGeometry x="310" y="540" width="230" height="180" as="geometry" />
        </mxCell>
        <mxCell id="MTI34OcGUTJvr-FiTrSd-6" value="&lt;br&gt;&lt;div&gt;&lt;div&gt;&lt;div&gt;- lastShot : double&lt;/div&gt;&lt;div&gt;&lt;br&gt;&lt;/div&gt;&lt;div&gt;&lt;br&gt;&lt;/div&gt;&lt;div&gt;&lt;div&gt;&lt;br&gt;&lt;/div&gt;&lt;/div&gt;&lt;/div&gt;&lt;div&gt;&lt;br&gt;&lt;/div&gt;&lt;/div&gt;" style="text;strokeColor=none;fillColor=none;align=left;verticalAlign=top;spacingLeft=4;spacingRight=4;overflow=hidden;rotatable=0;points=[[0,0.5],[1,0.5]];portConstraint=eastwest;whiteSpace=wrap;html=1;" vertex="1" parent="MTI34OcGUTJvr-FiTrSd-5">
          <mxGeometry y="26" width="230" height="54" as="geometry" />
        </mxCell>
        <mxCell id="MTI34OcGUTJvr-FiTrSd-7" value="" style="line;strokeWidth=1;fillColor=none;align=left;verticalAlign=middle;spacingTop=-1;spacingLeft=3;spacingRight=3;rotatable=0;labelPosition=right;points=[];portConstraint=eastwest;strokeColor=inherit;" vertex="1" parent="MTI34OcGUTJvr-FiTrSd-5">
          <mxGeometry y="80" width="230" height="8" as="geometry" />
        </mxCell>
        <mxCell id="MTI34OcGUTJvr-FiTrSd-8" value="+ Peashooter(x : int, y : int)&lt;div&gt;+ canShootPea(currentTime : int) : boolean&lt;/div&gt;&lt;div&gt;+ updateShootPeaTime(currentTime : int) : void&lt;/div&gt;&lt;div&gt;&lt;br&gt;&lt;/div&gt;" style="text;strokeColor=none;fillColor=none;align=left;verticalAlign=top;spacingLeft=4;spacingRight=4;overflow=hidden;rotatable=0;points=[[0,0.5],[1,0.5]];portConstraint=eastwest;whiteSpace=wrap;html=1;" vertex="1" parent="MTI34OcGUTJvr-FiTrSd-5">
          <mxGeometry y="88" width="230" height="92" as="geometry" />
        </mxCell>
        <mxCell id="MTI34OcGUTJvr-FiTrSd-9" value="Sunflower" style="swimlane;fontStyle=1;align=center;verticalAlign=top;childLayout=stackLayout;horizontal=1;startSize=26;horizontalStack=0;resizeParent=1;resizeParentMax=0;resizeLast=0;collapsible=1;marginBottom=0;whiteSpace=wrap;html=1;" vertex="1" parent="1">
          <mxGeometry x="30" y="540" width="200" height="220" as="geometry" />
        </mxCell>
        <mxCell id="MTI34OcGUTJvr-FiTrSd-10" value="&lt;div&gt;&lt;div&gt;- amountSun: int&lt;div&gt;- sunProductionInterval: int&lt;div&gt;- lastProdTime&lt;span style=&quot;background-color: transparent; color: light-dark(rgb(0, 0, 0), rgb(255, 255, 255));&quot;&gt;: int&lt;/span&gt;&lt;/div&gt;&lt;div&gt;&lt;div&gt;&lt;br&gt;&lt;/div&gt;&lt;/div&gt;&lt;/div&gt;&lt;/div&gt;&lt;div&gt;&lt;br&gt;&lt;/div&gt;&lt;/div&gt;" style="text;strokeColor=none;fillColor=none;align=left;verticalAlign=top;spacingLeft=4;spacingRight=4;overflow=hidden;rotatable=0;points=[[0,0.5],[1,0.5]];portConstraint=eastwest;whiteSpace=wrap;html=1;" vertex="1" parent="MTI34OcGUTJvr-FiTrSd-9">
          <mxGeometry y="26" width="200" height="64" as="geometry" />
        </mxCell>
        <mxCell id="MTI34OcGUTJvr-FiTrSd-11" value="" style="line;strokeWidth=1;fillColor=none;align=left;verticalAlign=middle;spacingTop=-1;spacingLeft=3;spacingRight=3;rotatable=0;labelPosition=right;points=[];portConstraint=eastwest;strokeColor=inherit;" vertex="1" parent="MTI34OcGUTJvr-FiTrSd-9">
          <mxGeometry y="90" width="200" height="8" as="geometry" />
        </mxCell>
        <mxCell id="MTI34OcGUTJvr-FiTrSd-12" value="+ Sunflower(x : int, y : int)&lt;div&gt;+ canProduceSun() : boolean&lt;/div&gt;&lt;div&gt;+ produceSun() : int&lt;/div&gt;&lt;div&gt;+ getSunAmount() : int&lt;/div&gt;&lt;div&gt;+ getSunProductionInterval() : int&lt;/div&gt;&lt;div&gt;+ getLastProdTime() : int&lt;/div&gt;&lt;div&gt;+ setLastProdTime(time : int) : void&lt;/div&gt;&lt;div&gt;&lt;br&gt;&lt;/div&gt;" style="text;strokeColor=none;fillColor=none;align=left;verticalAlign=top;spacingLeft=4;spacingRight=4;overflow=hidden;rotatable=0;points=[[0,0.5],[1,0.5]];portConstraint=eastwest;whiteSpace=wrap;html=1;" vertex="1" parent="MTI34OcGUTJvr-FiTrSd-9">
          <mxGeometry y="98" width="200" height="122" as="geometry" />
        </mxCell>
        <mxCell id="MTI34OcGUTJvr-FiTrSd-13" value="Plant" style="swimlane;fontStyle=1;align=center;verticalAlign=top;childLayout=stackLayout;horizontal=1;startSize=26;horizontalStack=0;resizeParent=1;resizeParentMax=0;resizeLast=0;collapsible=1;marginBottom=0;whiteSpace=wrap;html=1;" vertex="1" parent="1">
          <mxGeometry x="140" y="100" width="240" height="340" as="geometry" />
        </mxCell>
        <mxCell id="MTI34OcGUTJvr-FiTrSd-14" value="# cost: int&lt;div&gt;# regenerateRate: int&lt;/div&gt;&lt;div&gt;# damage : int&lt;div&gt;# range : int&lt;div&gt;# directDamage : int&lt;/div&gt;&lt;div&gt;# speed : double&lt;/div&gt;&lt;div&gt;# health: int&lt;/div&gt;&lt;/div&gt;&lt;/div&gt;" style="text;strokeColor=none;fillColor=none;align=left;verticalAlign=top;spacingLeft=4;spacingRight=4;overflow=hidden;rotatable=0;points=[[0,0.5],[1,0.5]];portConstraint=eastwest;whiteSpace=wrap;html=1;" vertex="1" parent="MTI34OcGUTJvr-FiTrSd-13">
          <mxGeometry y="26" width="240" height="114" as="geometry" />
        </mxCell>
        <mxCell id="MTI34OcGUTJvr-FiTrSd-15" value="" style="line;strokeWidth=1;fillColor=none;align=left;verticalAlign=middle;spacingTop=-1;spacingLeft=3;spacingRight=3;rotatable=0;labelPosition=right;points=[];portConstraint=eastwest;strokeColor=inherit;" vertex="1" parent="MTI34OcGUTJvr-FiTrSd-13">
          <mxGeometry y="140" width="240" height="8" as="geometry" />
        </mxCell>
        <mxCell id="MTI34OcGUTJvr-FiTrSd-16" value="+ Plant(x : int, y : int)&lt;div&gt;&lt;div&gt;+ loseHP(dmg : int) : void&lt;/div&gt;&lt;div&gt;+ isDead() : boolean&lt;/div&gt;&lt;/div&gt;&lt;div&gt;&lt;div&gt;+ getCost() : int&lt;/div&gt;&lt;div&gt;+ getRange() : int&lt;/div&gt;&lt;div&gt;+ getSpeed() : int&lt;/div&gt;&lt;/div&gt;&lt;div&gt;&lt;div&gt;+ getHealth() : int&amp;nbsp;&lt;/div&gt;&lt;div&gt;&lt;div&gt;+ getDamage() : int&lt;/div&gt;&lt;div&gt;+ getDirectDamage() : int&lt;/div&gt;&lt;/div&gt;&lt;div&gt;+ getRegenerateRate() : double&lt;/div&gt;&lt;div&gt;+ getX() : int&lt;/div&gt;&lt;div&gt;+ getY() : int&lt;/div&gt;&lt;/div&gt;" style="text;strokeColor=none;fillColor=none;align=left;verticalAlign=top;spacingLeft=4;spacingRight=4;overflow=hidden;rotatable=0;points=[[0,0.5],[1,0.5]];portConstraint=eastwest;whiteSpace=wrap;html=1;" vertex="1" parent="MTI34OcGUTJvr-FiTrSd-13">
          <mxGeometry y="148" width="240" height="192" as="geometry" />
        </mxCell>
        <mxCell id="MTI34OcGUTJvr-FiTrSd-17" value="" style="endArrow=open;endFill=1;endSize=12;html=1;rounded=0;exitX=0.402;exitY=-0.003;exitDx=0;exitDy=0;exitPerimeter=0;entryX=0.44;entryY=1.027;entryDx=0;entryDy=0;entryPerimeter=0;" edge="1" parent="1" source="MTI34OcGUTJvr-FiTrSd-9" target="MTI34OcGUTJvr-FiTrSd-16">
          <mxGeometry width="160" relative="1" as="geometry">
            <mxPoint x="340" y="310" as="sourcePoint" />
            <mxPoint x="500" y="310" as="targetPoint" />
          </mxGeometry>
        </mxCell>
        <mxCell id="MTI34OcGUTJvr-FiTrSd-18" value="Extends" style="edgeLabel;html=1;align=center;verticalAlign=middle;resizable=0;points=[];" vertex="1" connectable="0" parent="MTI34OcGUTJvr-FiTrSd-17">
          <mxGeometry x="0.0319" y="-1" relative="1" as="geometry">
            <mxPoint x="-5" as="offset" />
          </mxGeometry>
        </mxCell>
        <mxCell id="MTI34OcGUTJvr-FiTrSd-19" value="" style="endArrow=open;endFill=1;endSize=12;html=1;rounded=0;exitX=0.5;exitY=0;exitDx=0;exitDy=0;entryX=0.54;entryY=1.031;entryDx=0;entryDy=0;entryPerimeter=0;" edge="1" parent="1" source="MTI34OcGUTJvr-FiTrSd-5" target="MTI34OcGUTJvr-FiTrSd-16">
          <mxGeometry width="160" relative="1" as="geometry">
            <mxPoint x="340" y="310" as="sourcePoint" />
            <mxPoint x="500" y="310" as="targetPoint" />
          </mxGeometry>
        </mxCell>
        <mxCell id="MTI34OcGUTJvr-FiTrSd-20" value="Extends" style="edgeLabel;html=1;align=center;verticalAlign=middle;resizable=0;points=[];" vertex="1" connectable="0" parent="MTI34OcGUTJvr-FiTrSd-19">
          <mxGeometry x="0.114" y="2" relative="1" as="geometry">
            <mxPoint x="5" as="offset" />
          </mxGeometry>
        </mxCell>
        <mxCell id="MTI34OcGUTJvr-FiTrSd-21" value="" style="endArrow=open;endFill=1;endSize=12;html=1;rounded=0;exitX=0.443;exitY=1.001;exitDx=0;exitDy=0;exitPerimeter=0;entryX=0.435;entryY=1.03;entryDx=0;entryDy=0;entryPerimeter=0;" edge="1" parent="1" source="MTI34OcGUTJvr-FiTrSd-4" target="MTI34OcGUTJvr-FiTrSd-12">
          <mxGeometry width="160" relative="1" as="geometry">
            <mxPoint x="340" y="790" as="sourcePoint" />
            <mxPoint x="110" y="900" as="targetPoint" />
            <Array as="points">
              <mxPoint x="703" y="900" />
              <mxPoint x="117" y="900" />
            </Array>
          </mxGeometry>
        </mxCell>
        <mxCell id="MTI34OcGUTJvr-FiTrSd-22" value="" style="endArrow=open;endFill=1;endSize=12;html=1;rounded=0;exitX=-0.016;exitY=0.223;exitDx=0;exitDy=0;exitPerimeter=0;entryX=0.996;entryY=0.22;entryDx=0;entryDy=0;entryPerimeter=0;" edge="1" parent="1">
          <mxGeometry width="160" relative="1" as="geometry">
            <mxPoint x="608.6400000000001" y="578.656" as="sourcePoint" />
            <mxPoint x="541.0799999999999" y="577.8799999999999" as="targetPoint" />
          </mxGeometry>
        </mxCell>
        <mxCell id="MTI34OcGUTJvr-FiTrSd-23" value="" style="endArrow=open;endFill=1;endSize=12;html=1;rounded=0;entryX=-0.012;entryY=0.596;entryDx=0;entryDy=0;entryPerimeter=0;" edge="1" parent="1">
          <mxGeometry width="160" relative="1" as="geometry">
            <mxPoint x="542" y="680" as="sourcePoint" />
            <mxPoint x="609.4799999999998" y="680.1119999999999" as="targetPoint" />
          </mxGeometry>
        </mxCell>
        <mxCell id="MTI34OcGUTJvr-FiTrSd-24" value="" style="endArrow=diamondThin;endFill=1;endSize=24;html=1;rounded=0;entryX=1.015;entryY=0.371;entryDx=0;entryDy=0;entryPerimeter=0;" edge="1" parent="1" target="MTI34OcGUTJvr-FiTrSd-16">
          <mxGeometry width="160" relative="1" as="geometry">
            <mxPoint x="540" y="320" as="sourcePoint" />
            <mxPoint x="510" y="420" as="targetPoint" />
            <Array as="points">
              <mxPoint x="540" y="550" />
              <mxPoint x="540" y="319" />
            </Array>
          </mxGeometry>
        </mxCell>
        <mxCell id="MTI34OcGUTJvr-FiTrSd-25" value="" style="endArrow=diamondThin;endFill=1;endSize=24;html=1;rounded=0;exitX=0.056;exitY=-0.018;exitDx=0;exitDy=0;exitPerimeter=0;" edge="1" parent="1" source="MTI34OcGUTJvr-FiTrSd-9">
          <mxGeometry width="160" relative="1" as="geometry">
            <mxPoint x="10" y="320" as="sourcePoint" />
            <mxPoint x="136" y="300" as="targetPoint" />
            <Array as="points">
              <mxPoint x="41" y="300" />
              <mxPoint x="136" y="300" />
            </Array>
          </mxGeometry>
        </mxCell>
      </root>
    </mxGraphModel>
  </diagram>
</mxfile>
